<?xml version="1.0" encoding="UTF-8"?>
<svg id="Layer_1" xmlns="http://www.w3.org/2000/svg" version="1.1" viewBox="0 0 640 640">
  <!-- Generator: Adobe Illustrator 30.1.0, SVG Export Plug-In . SVG Version: 2.1.1 Build 136)  -->
  <defs>
    <style>
      .st0 {
        fill: #00f6ff;
      }
    </style>
  </defs>
  <path class="st0" d="M192,576h320c17.7,0,32-14.3,32-32s-14.3-32-32-32v-66.7c18.6-6.6,32-24.4,32-45.3V112c0-26.5-21.5-48-48-48H192c-53,0-96,43-96,96v320c0,53,43,96,96,96ZM160,480c0-17.7,14.3-32,32-32h256v64H192c-17.7,0-32-14.3-32-32ZM370.1,163.2c2.6-2.6,6.7-3.1,9.9-1.1,32.1,20,53.4,55.6,53.4,96.2,0,62.6-50.7,113.3-113.3,113.3s-113.4-50.7-113.4-113.3c0-40.6,21.4-76.2,53.4-96.2,3.1-2,7.2-1.5,9.9,1.1,2.7,2.6,3.1,6.7,1.2,9.8-5.2,8.6-8.2,18.7-8.2,29.5,0,15.1,5.9,28.8,15.5,39.1,2.5,2.7,2.9,6.7.9,9.7-4.7,7.4-7.4,16.1-7.4,25.5,0,21.6,14.3,39.9,34,45.9l1-24.8c-7.1-4.4-11.8-12.2-11.8-21.1,0-9.6,5.5-18,13.5-22.1l3.3-81.8c.2-4.3,3.7-7.7,8-7.7s7.8,3.4,8,7.7l3.3,81.8c8,4.1,13.5,12.4,13.5,22.1,0,8.9-4.7,16.7-11.8,21.1l1,24.8c19.6-6,33.9-24.1,34-45.6v-.6c-.1-9.3-2.7-17.9-7.4-25.2-1.9-3.1-1.6-7.1.9-9.7,9.6-10.2,15.5-23.9,15.5-39.1,0-10.8-3-20.9-8.2-29.5-1.9-3.2-1.4-7.2,1.2-9.8h.1Z"/>
</svg>