<?xml version="1.0" encoding="UTF-8"?>
<svg id="Layer_1" xmlns="http://www.w3.org/2000/svg" version="1.1" viewBox="0 0 640 640">
  <!-- Generator: Adobe Illustrator 30.1.0, SVG Export Plug-In . SVG Version: 2.1.1 Build 136)  -->
  <defs>
    <style>
      .st0 {
        fill: #00f6ff;
      }
    </style>
  </defs>
  <path class="st0" d="M480,96c35.3,0,64,28.7,64,64v320c0,35.3-28.7,64-64,64H160c-35.3,0-64-28.7-64-64V160c0-35.3,28.7-64,64-64h320ZM438,209.7c-10.7-7.8-25.7-5.4-33.5,5.3l-119.4,164.2-52.1-52.1c-9.4-9.4-24.6-9.4-33.9,0-9.3,9.4-9.4,24.6,0,33.9l72,72c5,5,11.9,7.5,18.8,7s13.4-4.1,17.5-9.8l135.9-187c7.8-10.7,5.4-25.7-5.3-33.5Z"/>
</svg>