<?xml version="1.0" encoding="UTF-8"?>
<svg id="Layer_1" xmlns="http://www.w3.org/2000/svg" version="1.1" viewBox="0 0 640 640">
  <!-- Generator: Adobe Illustrator 30.1.0, SVG Export Plug-In . SVG Version: 2.1.1 Build 136)  -->
  <defs>
    <style>
      .st0 {
        fill: #00f6ff;
      }
    </style>
  </defs>
  <path class="st0" d="M576,112c0-11.1-5.7-21.4-15.2-27.2-9.5-5.8-21.2-6.4-31.1-1.4l-116.2,58.1-179.4-59.9c-8.1-2.7-16.8-2.1-24.4,1.7l-128,64c-10.9,5.5-17.7,16.6-17.7,28.7v352c0,11.1,5.7,21.4,15.2,27.2s21.2,6.4,31.1,1.4l116.1-58.1,173.3,57.8c-4.3-6.4-8.5-13.1-12.6-19.9-11-18.3-21.9-39.3-30-61.8l-101.2-33.7V156.4l128,42.7v99.3c31-35.8,77-58.4,128-58.4,22.6,0,44.2,4.4,64,12.5l.1-140.5ZM512,288c-66.3,0-120,52.8-120,117.9,0,68.9,64.1,150.4,98.6,189.3,11.6,13,31.3,13,42.9,0,34.5-38.9,98.6-120.4,98.6-189.3,0-65.1-53.7-117.9-120-117.9h-.1ZM472,408c0-22.1,17.9-40,40-40s40,17.9,40,40-17.9,40-40,40-40-17.9-40-40Z"/>
</svg>