<?xml version="1.0" encoding="UTF-8"?>
<svg id="Layer_1" xmlns="http://www.w3.org/2000/svg" version="1.1" viewBox="0 0 640 640">
  <!-- Generator: Adobe Illustrator 30.1.0, SVG Export Plug-In . SVG Version: 2.1.1 Build 136)  -->
  <defs>
    <style>
      .st0 {
        fill: #00f6ff;
      }
    </style>
  </defs>
  <path class="st0" d="M256,312c66.3,0,120-53.7,120-120s-53.7-120-120-120-120,53.7-120,120,53.7,120,120,120ZM226.3,368c-98.5,0-178.3,79.8-178.3,178.3,0,16.4,13.3,29.7,29.7,29.7h251.5c-36.2-42.6-57.2-97.5-57.2-155.6v-31.1c0-7.3,1-14.5,2.9-21.3h-48.6ZM477.3,552.5l-13.3,6.3v-188.1l96,32v19.6c0,55.8-32.2,106.5-82.7,130.3v-.1ZM453.9,323.5l-112,37.3c-13.1,4.4-21.9,16.6-21.9,30.4v31.1c0,74.4,43,142.1,110.2,173.7l18.5,8.7c4.8,2.2,10,3.4,15.2,3.4s10.5-1.2,15.2-3.4l18.5-8.7c67.4-31.7,110.4-99.4,110.4-173.8v-31.1c0-13.8-8.8-26-21.9-30.4l-112-37.3c-6.6-2.2-13.7-2.2-20.2,0v.1Z"/>
</svg>